<svg xmlns="http://www.w3.org/2000/svg" width="13.218" height="16.2" viewBox="0 0 13.218 16.2">
  <g id="notification" transform="translate(-3.366 -1.34)">
    <path id="Path_31" data-name="Path 31" d="M9.993,2.91A4.483,4.483,0,0,0,5.5,7.381V9.534a3.55,3.55,0,0,1-.426,1.535l-.86,1.423a1.428,1.428,0,0,0,.808,2.183,15.707,15.707,0,0,0,9.926,0,1.49,1.49,0,0,0,.808-2.183l-.86-1.423a3.648,3.648,0,0,1-.419-1.535V7.381A4.493,4.493,0,0,0,9.993,2.91Z" transform="translate(0 -0.245)" fill="none" stroke="#262626" stroke-linecap="round" stroke-miterlimit="10" stroke-width="1.2"/>
    <path id="Path_32" data-name="Path 32" d="M12.936,2.882a4.526,4.526,0,0,0-.718-.15,5.049,5.049,0,0,0-2.048.15,1.486,1.486,0,0,1,2.766,0Z" transform="translate(-1.56 0)" fill="none" stroke="#262626" stroke-linecap="round" stroke-linejoin="round" stroke-miterlimit="10" stroke-width="1.2"/>
    <path id="Path_33" data-name="Path 33" d="M13.505,19.06a2.243,2.243,0,0,1-4.485,0" transform="translate(-1.27 -4.363)" fill="none" stroke="#262626" stroke-miterlimit="10" stroke-width="1.2"/>
  </g>
</svg>
