<svg xmlns="http://www.w3.org/2000/svg" width="14.394" height="16.238" viewBox="0 0 14.394 16.238">
  <g id="Group_211" data-name="Group 211" transform="translate(-289.4 -202.362)">
    <g id="Personal_info" data-name="Personal info" transform="translate(290 203)">
      <path id="Path_61" data-name="Path 61" d="M16.293,8.411V5.839a2.6,2.6,0,0,0-1.567-2.265l-3.742-1.4a3.764,3.764,0,0,0-2.265,0L4.977,3.582A2.6,2.6,0,0,0,3.41,5.839v5.572a3.646,3.646,0,0,0,1.3,2.58L7.932,16.4a3.16,3.16,0,0,0,1.92.6" transform="translate(-3.41 -1.998)" fill="none" stroke="#262626" stroke-linecap="round" stroke-linejoin="round" stroke-width="1.2"/>
      <path id="Path_62" data-name="Path 62" d="M15,18.006a3,3,0,1,0-3-3A3,3,0,0,0,15,18.006Z" transform="translate(-5.566 -4.508)" fill="none" stroke="#262626" stroke-linecap="round" stroke-linejoin="round" stroke-width="1.2"/>
      <path id="Path_63" data-name="Path 63" d="M21,21H21" transform="translate(-7.808 -6.751)" fill="none" stroke="#262626" stroke-linecap="round" stroke-linejoin="round" stroke-width="1.2"/>
    </g>
  </g>
</svg>
