<svg xmlns="http://www.w3.org/2000/svg" width="20" height="20" viewBox="0 0 20 20">
  <g id="link" transform="translate(-4245 1585)">
    <path id="Path_135" data-name="Path 135" d="M268.573,1.574a5.356,5.356,0,0,0-7.573,0l-2.988,2.987a6.61,6.61,0,0,1,.716-.037,6.917,6.917,0,0,1,2.188.352l1.693-1.693a3.079,3.079,0,1,1,4.355,4.353l-3.313,3.313a3.082,3.082,0,0,1-5.011-.968,1.527,1.527,0,0,0-1,.447l-.882.884a5.357,5.357,0,0,0,8.5,1.248l3.313-3.314a5.355,5.355,0,0,0,0-7.572Z" transform="translate(3994.859 -1585.006)" fill="#262626"/>
    <path id="Path_136" data-name="Path 136" d="M81.45,178.432a6.868,6.868,0,0,1-2.212-.364l-1.7,1.7a3.079,3.079,0,1,1-4.353-4.355l3.313-3.313a3.083,3.083,0,0,1,5.011.969,1.523,1.523,0,0,0,1-.447l.881-.882a5.358,5.358,0,0,0-8.5-1.249l-3.313,3.314a5.355,5.355,0,1,0,7.572,7.573l2.983-2.983c-.222.021-.447.032-.674.032Z" transform="translate(4174.999 -1747.952)" fill="#262626"/>
  </g>
</svg>
