<svg xmlns="http://www.w3.org/2000/svg" width="23.49" height="23.402" viewBox="0 0 23.49 23.402">
  <g id="Group_242" data-name="Group 242" transform="translate(-3867.591 3247.083) rotate(-40)">
    <path id="Path_80" data-name="Path 80" d="M169.692,66.235a7.611,7.611,0,0,1-1.571-.179,9.773,9.773,0,0,1-4.461-2.314l-6.981-6.25a3.236,3.236,0,0,1-1.078-2.626,3.274,3.274,0,0,1,1.115-2.259l2.836-2.46a.807.807,0,0,1,1.11.048l.745.769a.811.811,0,0,1-.02,1.147l-.105.1a.54.54,0,0,0-.161.425,3.391,3.391,0,0,0,3.044,3.193.5.5,0,0,0,.538-.336,1.97,1.97,0,0,1,1.663-1.25.413.413,0,0,1,.415.326,14.775,14.775,0,0,0,5.294,8.86,1.34,1.34,0,0,1,.519,1.077,1.3,1.3,0,0,1-.536,1.043,3.93,3.93,0,0,1-2.366.684Zm-9.61-15.475h0l-2.836,2.46a2.461,2.461,0,0,0-.838,1.7,2.431,2.431,0,0,0,.809,1.972l6.981,6.25a8.965,8.965,0,0,0,4.09,2.125,4.087,4.087,0,0,0,3.3-.368.5.5,0,0,0,.2-.4.52.52,0,0,0-.2-.424,15.319,15.319,0,0,1-5.508-8.929,1.162,1.162,0,0,0-.623.653,1.29,1.29,0,0,1-1.448.828,4.192,4.192,0,0,1-3.691-3.935,1.348,1.348,0,0,1,.407-1.06l.105-.1Zm-.265-.306h0Z" transform="translate(4887.313 -42.95)" fill="#262626"/>
    <path id="Path_83" data-name="Path 83" d="M372.4,266.135a.4.4,0,0,1-.135-.784l3.482-1.233a.4.4,0,1,1,.27.761l-3.482,1.233a.405.405,0,0,1-.135.023Z" transform="translate(4679.032 -249.041)" fill="#262626"/>
    <path id="Path_84" data-name="Path 84" d="M427.591,313.478a.4.4,0,0,1-.109-.793l2.311-.649a.4.4,0,1,1,.218.778l-2.311.649A.411.411,0,0,1,427.591,313.478Z" transform="translate(4625.916 -295.168)" fill="#262626"/>
    <path id="Path_82" data-name="Path 82" d="M202.551,124.559h-.006c-6.24-.095-13.941-10.891-14.266-11.351a.5.5,0,0,1,.079-.657.409.409,0,0,1,.6.086c.077.109,7.77,10.9,13.595,10.984a.47.47,0,0,1-.006.937Z" transform="translate(4855.939 -103.111)" fill="#262626"/>
  </g>
</svg>
